<svg xmlns="http://www.w3.org/2000/svg" width="64" height="64" viewBox="0 0 128 128" fill="none">
  <circle cx="64" cy="64" r="56" fill="#FACC15" />
  <g transform="translate(64 64)">
    <path d="M0 -28 C 10 -20 14 -8 14 0 C 14 8 10 20 0 28 C -10 20 -14 8 -14 0 C -14 -8 -10 -20 0 -28 Z" fill="#0A0A0A"/>
    <circle cx="0" cy="-8" r="4" fill="#F8FAFC"/>
    <path d="M-14 6 L-24 12 L-14 9 Z" fill="#0A0A0A"/>
    <path d="M14 6 L24 12 L14 9 Z" fill="#0A0A0A"/>
    <path d="M0 28 C -3 33 -2 38 0 42 C 2 38 3 33 0 28 Z" fill="#FB923C"/>
  </g>
</svg>

