<svg xmlns="http://www.w3.org/2000/svg" width="128" height="128" viewBox="0 0 128 128" fill="none">
  <defs>
    <filter id="shadow" x="-20%" y="-20%" width="140%" height="140%">
      <feDropShadow dx="0" dy="2" stdDeviation="3" flood-color="rgba(0,0,0,0.25)"/>
    </filter>
  </defs>
  <g filter="url(#shadow)">
    <circle cx="64" cy="64" r="56" fill="#FACC15" />
  </g>
  <!-- Simple rocket glyph -->
  <g transform="translate(64 64)">
    <!-- Body -->
    <path d="M0 -28 C 10 -20 14 -8 14 0 C 14 8 10 20 0 28 C -10 20 -14 8 -14 0 C -14 -8 -10 -20 0 -28 Z" fill="#0A0A0A"/>
    <!-- Window -->
    <circle cx="0" cy="-8" r="4" fill="#F8FAFC"/>
    <!-- Left fin -->
    <path d="M-14 6 L-26 14 L-14 10 Z" fill="#0A0A0A"/>
    <!-- Right fin -->
    <path d="M14 6 L26 14 L14 10 Z" fill="#0A0A0A"/>
    <!-- Flame -->
    <path d="M0 28 C -4 34 -2 40 0 44 C 2 40 4 34 0 28 Z" fill="#FB923C"/>
  </g>
</svg>

